<?xml version="1.0"?>
<!DOCTYPE svg PUBLIC '-//W3C//DTD SVG 1.1//EN' 'http://www.w3.org/Graphics/SVG/1.1/DTD/svg11.dtd'>
<svg fill="none" stroke="#45A29E" width="800px" height="800px" viewBox="0 0 64 64" enable-background="new 0 0 64 64" id="Слой_3"
    version="1.1" xml:space="preserve" xmlns="http://www.w3.org/2000/svg"
    xmlns:xlink="http://www.w3.org/1999/xlink">
    <path d="  M14.561,42.262v-9.543c0-1.961,1.59-3.551,3.551-3.551h27.74c1.961,0,3.551,1.59,3.551,3.551v3.992" stroke-linecap="round" stroke-linejoin="round" stroke-miterlimit="10" stroke-width="2.7"/>
    <path d="  M19.445,29.168v-8.211c0-1.961,1.59-3.551,3.551-3.551h17.973c1.961,0,3.551,1.59,3.551,3.551v8.211" stroke-linecap="round" stroke-linejoin="round" stroke-miterlimit="10" stroke-width="2.7"/>
    <path d="  M16.318,51.852c0.661,0.297,1.45,0.49,2.481,0.49c4.393,0,4.393-3.515,8.786-3.515c4.391,0,4.391,3.515,8.782,3.515  c4.395,0,4.395-3.515,8.789-3.515s4.395,3.515,8.789,3.515v-6.529c0-1.961-1.59-3.551-3.551-3.551H13.568  c-1.961,0-3.551,1.59-3.551,3.551v3.015c0.549,0,1.029,0.055,1.458,0.15" fill="none" stroke-linecap="round" stroke-linejoin="round" stroke-miterlimit="10" stroke-width="2.7"/>
    <line stroke-linecap="round" stroke-linejoin="round" stroke-miterlimit="10" stroke-width="2.7" x1="29.925" x2="44.52" y1="23.287" y2="23.287"/>
    <line stroke-linecap="round" stroke-linejoin="round" stroke-miterlimit="10" stroke-width="2.7" x1="19.445" x2="23.923" y1="23.287" y2="23.287"/>
    <line stroke-linecap="round" stroke-linejoin="round" stroke-miterlimit="10" stroke-width="2.7" x1="15.053" x2="6.299" y1="58.5" y2="58.5"/>
    <path d="  M52.174,52.111v3.124c0,1.803-1.461,3.265-3.264,3.265H15.053c-1.803,0-3.264-1.462-3.264-3.265v-6.177" stroke-linecap="round" stroke-linejoin="round" stroke-miterlimit="10" stroke-width="2.7"/>
    <line stroke-linecap="round" stroke-linejoin="round" stroke-miterlimit="10" stroke-width="2.7" x1="56.174" x2="58.799" y1="58.5" y2="58.5"/>
    <path d="  M31.554,14.071c0-1.768,1.432-3.199,3.2-3.199c1.768,0,3.199,1.432,3.199,3.199v0.001c0,1.767-1.432,3.198-3.199,3.198l0,0  C32.986,17.271,31.554,15.839,31.554,14.071V9.771c0-1.768,1.432-3.199,3.2-3.199c1.154,0,2.166,0.609,2.729,1.527" fill="none" stroke-linecap="round" stroke-linejoin="round" stroke-miterlimit="10" stroke-width="2.7"/>
    <polyline points="  25.208,8.983 27.464,6.941 27.464,17.271 " stroke-linecap="round" stroke-linejoin="round" stroke-miterlimit="10" stroke-width="2.7"/>
    <polyline points="  53.717,23.949 51.984,22.639 55.432,21.688 56.604,18.311 58.572,21.295 62.145,21.367 59.914,24.161 60.953,27.581 57.605,26.325   54.672,28.367 " stroke-linecap="round" stroke-linejoin="round" stroke-miterlimit="10" stroke-width="2.7"/>
    <path d="  M2.306,30.461c1.219,0.701,0.684,1.63,1.904,2.333c1.22,0.702,1.755-0.228,2.976,0.476c1.221,0.702,0.686,1.633,1.906,2.334" stroke-linecap="round" stroke-linejoin="round" stroke-miterlimit="10" stroke-width="2.7"/>
    <path d="  M14.887,11.787c0.491,0,0.888,0.397,0.888,0.888c0,0.491-0.397,0.889-0.888,0.889s-0.888-0.397-0.888-0.889" stroke-linecap="round" stroke-linejoin="round" stroke-miterlimit="10" stroke-width="2.7"/>
    <line stroke-linecap="round" stroke-linejoin="round" stroke-miterlimit="10" stroke-width="2.7" x1="54.672" x2="52.174" y1="28.367" y2="39.012"/>
</svg>